# Blender 4.1.1
# www.blender.org
o Nightmare
v 0.000000 -1.000000 0.000000
v 0.721870 -0.447591 0.525868
v -0.188666 -0.383098 1.118077
v -0.936685 -0.451595 -0.033997
v -0.462987 -0.424454 -0.864184
v 0.580246 -0.387231 -0.675775
v 0.384590 0.488007 1.138610
v -0.897759 0.150573 0.577605
v -0.867501 0.668364 -0.435274
v 0.155868 0.588938 -0.831717
v 0.858602 0.347259 -0.098479
v 0.063919 1.165519 0.034681
v -0.162456 -0.850654 0.499996
v 0.425323 -0.850654 0.309011
v 0.238835 -0.545245 0.897688
v 0.827816 -0.450027 -0.052114
v 0.425323 -0.850654 -0.309011
v -0.525730 -0.850652 0.000000
v -0.617361 -0.578472 0.631460
v -0.162456 -0.850654 -0.499995
v -0.761994 -0.491022 -0.461513
v 0.071790 -0.478523 -0.879513
v 0.904223 0.032572 0.203398
v 0.847505 0.112290 -0.515489
v 0.038277 0.067537 1.391661
v 0.683776 -0.025431 0.925080
v -1.016665 -0.243340 0.420994
v -0.531733 0.058856 1.077618
v -0.764823 0.181925 -0.760968
v -1.146979 -0.014540 -0.290378
v 0.329360 0.139645 -0.954464
v -0.400696 0.179435 -1.050699
v 0.739492 0.412333 0.361127
v -0.571080 0.713289 0.778102
v -1.135204 0.227921 0.068042
v -0.394611 0.829610 -0.730654
v 0.693740 0.471170 -0.452647
v -0.102666 1.047922 0.702233
v 0.469666 0.897279 0.055333
v -0.505326 0.960042 0.067321
v -0.417463 1.064900 -0.360324
v 0.311952 0.966551 -0.404486
vn 0.1024 -0.9435 0.3151
vn 0.7594 -0.6350 0.1419
vn -0.2680 -0.9435 0.1947
vn -0.2680 -0.9435 -0.1947
vn 0.1024 -0.9435 -0.3151
vn 0.9537 -0.2441 0.1758
vn 0.1901 -0.5777 0.7938
vn -0.6893 -0.6970 0.1979
vn -0.7508 -0.2712 -0.6023
vn 0.3996 -0.2726 -0.8752
vn 0.9455 -0.1745 0.2748
vn -0.4600 -0.2799 0.8426
vn -0.9078 -0.4181 0.0318
vn -0.6138 -0.1745 -0.7699
vn 0.6403 -0.0981 -0.7619
vn 0.6431 0.7328 0.2222
vn -0.8745 0.4775 0.0849
vn -0.6622 0.7020 0.2621
vn 0.1812 0.7031 -0.6876
vn 0.7854 0.5990 -0.1560
vn 0.5526 0.8309 -0.0644
vn 0.7720 0.6117 -0.1726
vn 0.5690 0.5019 -0.6514
vn 0.1030 0.9266 -0.3616
vn 0.0816 0.8435 -0.5309
vn -0.5353 0.6976 -0.4762
vn -0.3269 0.9312 0.1612
vn -0.7580 0.6522 0.0042
vn -0.6905 0.5945 0.4120
vn -0.3342 0.9389 0.0820
vn -0.5406 0.8090 0.2308
vn -0.2071 0.4829 0.8508
vn 0.5209 0.8089 0.2725
vn 0.6485 0.6301 0.4270
vn 0.8264 0.5461 0.1369
vn 0.8706 0.4184 -0.2589
vn 0.6089 0.3826 -0.6949
vn 0.5830 0.4158 -0.6980
vn 0.0282 0.4412 -0.8969
vn -0.5782 0.3647 -0.7298
vn -0.5796 0.3654 -0.7284
vn -0.9214 0.3354 -0.1966
vn -0.9802 -0.1476 0.1321
vn -0.8962 0.0985 0.4326
vn -0.7648 0.2295 0.6020
vn -0.4565 0.3474 0.8191
vn -0.1547 0.5999 0.7850
vn 0.8635 0.3535 0.3597
vn 0.9141 0.2715 0.3011
vn 0.9268 0.3212 0.1947
vn 0.1409 0.3112 -0.9399
vn 0.1198 -0.1685 -0.9784
vn -0.0566 -0.2893 -0.9556
vn -0.8000 0.2080 -0.5628
vn -0.6741 -0.3027 -0.6738
vn -0.7938 -0.5428 -0.2743
vn -0.8062 0.0081 0.5916
vn -0.6572 -0.3710 0.6561
vn -0.6005 -0.4029 0.6907
vn 0.5862 0.0047 0.8101
vn 0.4796 -0.4502 0.7532
vn 0.5818 -0.5305 0.6165
vn 0.9946 0.0771 -0.0699
vn 0.9899 -0.1090 -0.0902
vn 0.8617 -0.3403 -0.3763
vn 0.3805 -0.6488 -0.6590
vn 0.2013 -0.7586 -0.6196
vn -0.0898 -0.6829 -0.7250
vn -0.4749 -0.7408 -0.4751
vn -0.4967 -0.7894 -0.3609
vn -0.6723 -0.7101 -0.2092
vn -0.6911 -0.6948 0.1992
vn -0.4219 -0.8532 0.3065
vn -0.2952 -0.7680 0.5684
vn 0.7635 -0.5380 -0.3573
vn 0.7055 -0.7087 -0.0000
vn 0.3313 -0.9435 -0.0000
vn 0.0087 -0.7973 0.6035
vn 0.1606 -0.8544 0.4941
vn 0.5331 -0.6701 0.5165
vt 0.181819 0.000000
vt 0.227273 0.078731
vt 0.136365 0.078731
vt 0.272728 0.157461
vt 0.318182 0.078731
vt 0.363637 0.157461
vt 0.909091 0.000000
vt 0.954545 0.078731
vt 0.863636 0.078731
vt 0.727273 0.000000
vt 0.772727 0.078731
vt 0.681818 0.078731
vt 0.545455 0.000000
vt 0.590909 0.078731
vt 0.500000 0.078731
vt 0.318182 0.236191
vt 0.090910 0.157461
vt 0.181819 0.157461
vt 0.136365 0.236191
vt 0.818182 0.157461
vt 0.909091 0.157461
vt 0.863636 0.236191
vt 0.636364 0.157461
vt 0.727273 0.157461
vt 0.681818 0.236191
vt 0.454546 0.157461
vt 0.545455 0.157461
vt 0.500000 0.236191
vt 0.227273 0.236191
vt 0.045455 0.236191
vt 0.772727 0.236191
vt 0.590909 0.236191
vt 0.409092 0.236191
vt 0.181819 0.314921
vt 0.272728 0.314921
vt 0.227273 0.393651
vt 0.000000 0.314921
vt 0.090910 0.314921
vt 0.045455 0.393651
vt 0.727273 0.314921
vt 0.818182 0.314921
vt 0.772727 0.393651
vt 0.545455 0.314921
vt 0.636364 0.314921
vt 0.590909 0.393651
vt 0.363637 0.314921
vt 0.454546 0.314921
vt 0.409092 0.393651
vt 0.500000 0.393651
vt 0.454546 0.472382
vt 0.681818 0.393651
vt 0.636364 0.472382
vt 0.863636 0.393651
vt 0.818182 0.472382
vt 0.909091 0.314921
vt 0.136365 0.393651
vt 0.090910 0.472382
vt 0.318182 0.393651
vt 0.272728 0.472382
vt 0.954545 0.236191
vt 1.000000 0.157461
vt 0.409092 0.078731
vt 0.363637 0.000000
s 0
f 1/1/1 14/2/1 13/3/1
f 2/4/2 14/5/2 16/6/2
f 1/7/3 13/8/3 18/9/3
f 1/10/4 18/11/4 20/12/4
f 1/13/5 20/14/5 17/15/5
f 2/4/6 16/6/6 23/16/6
f 3/17/7 15/18/7 25/19/7
f 4/20/8 19/21/8 27/22/8
f 5/23/9 21/24/9 29/25/9
f 6/26/10 22/27/10 31/28/10
f 2/4/11 23/16/11 26/29/11
f 3/17/12 25/19/12 28/30/12
f 4/20/13 27/22/13 30/31/13
f 5/23/14 29/25/14 32/32/14
f 6/26/15 31/28/15 24/33/15
f 7/34/16 33/35/16 38/36/16
f 8/37/17 34/38/17 40/39/17
f 9/40/18 35/41/18 41/42/18
f 10/43/19 36/44/19 42/45/19
f 11/46/20 37/47/20 39/48/20
f 39/48/21 42/49/21 12/50/21
f 39/48/22 37/47/22 42/49/22
f 37/47/23 10/43/23 42/49/23
f 42/45/24 41/51/24 12/52/24
f 42/45/25 36/44/25 41/51/25
f 36/44/26 9/40/26 41/51/26
f 41/42/27 40/53/27 12/54/27
f 41/42/28 35/41/28 40/53/28
f 35/41/29 8/55/29 40/53/29
f 40/39/30 38/56/30 12/57/30
f 40/39/31 34/38/31 38/56/31
f 34/38/32 7/34/32 38/56/32
f 38/36/33 39/58/33 12/59/33
f 38/36/34 33/35/34 39/58/34
f 33/35/35 11/46/35 39/58/35
f 24/33/36 37/47/36 11/46/36
f 24/33/37 31/28/37 37/47/37
f 31/28/38 10/43/38 37/47/38
f 32/32/39 36/44/39 10/43/39
f 32/32/40 29/25/40 36/44/40
f 29/25/41 9/40/41 36/44/41
f 30/31/42 35/41/42 9/40/42
f 30/31/43 27/22/43 35/41/43
f 27/22/44 8/55/44 35/41/44
f 28/30/45 34/38/45 8/37/45
f 28/30/46 25/19/46 34/38/46
f 25/19/47 7/34/47 34/38/47
f 26/29/48 33/35/48 7/34/48
f 26/29/49 23/16/49 33/35/49
f 23/16/50 11/46/50 33/35/50
f 31/28/51 32/32/51 10/43/51
f 31/28/52 22/27/52 32/32/52
f 22/27/53 5/23/53 32/32/53
f 29/25/54 30/31/54 9/40/54
f 29/25/55 21/24/55 30/31/55
f 21/24/56 4/20/56 30/31/56
f 27/22/57 28/60/57 8/55/57
f 27/22/58 19/21/58 28/60/58
f 19/21/59 3/61/59 28/60/59
f 25/19/60 26/29/60 7/34/60
f 25/19/61 15/18/61 26/29/61
f 15/18/62 2/4/62 26/29/62
f 23/16/63 24/33/63 11/46/63
f 23/16/64 16/6/64 24/33/64
f 16/6/65 6/26/65 24/33/65
f 17/15/66 22/27/66 6/26/66
f 17/15/67 20/14/67 22/27/67
f 20/14/68 5/23/68 22/27/68
f 20/12/69 21/24/69 5/23/69
f 20/12/70 18/11/70 21/24/70
f 18/11/71 4/20/71 21/24/71
f 18/9/72 19/21/72 4/20/72
f 18/9/73 13/8/73 19/21/73
f 13/8/74 3/61/74 19/21/74
f 16/6/75 17/62/75 6/26/75
f 16/6/76 14/5/76 17/62/76
f 14/5/77 1/63/77 17/62/77
f 13/3/78 15/18/78 3/17/78
f 13/3/79 14/2/79 15/18/79
f 14/2/80 2/4/80 15/18/80
