# Blender 4.1.1
# www.blender.org
o Circle
v 0.000000 -1.000000 -1.000000
v -0.951057 -1.000000 -0.309017
v -0.587785 -1.000000 0.809017
v 0.587785 -1.000000 0.809017
v 0.951057 -1.000000 -0.309017
v 0.000000 -1.000000 -1.000000
v -0.951057 -1.000000 -0.309017
v -0.587785 -1.000000 0.809017
v 0.587785 -1.000000 0.809017
v 0.951057 -1.000000 -0.309017
v 0.000000 1.000000 -1.000000
v -0.951057 1.000000 -0.309017
v -0.587785 1.000000 0.809017
v 0.587785 1.000000 0.809017
v 0.951057 1.000000 -0.309017
vn -0.0000 1.0000 -0.0000
vn 0.5878 -0.0000 -0.8090
vn -0.0000 -0.0000 1.0000
vn -0.5878 -0.0000 -0.8090
vn 0.9511 -0.0000 0.3090
vn -0.9511 -0.0000 0.3090
vt 0.000000 0.000000
s 0
f 2/1/1 6/1/1 1/1/1
f 5/1/1 9/1/1 4/1/1
f 3/1/1 7/1/1 2/1/1
f 1/1/1 10/1/1 5/1/1
f 4/1/1 8/1/1 3/1/1
f 11/1/2 10/1/2 6/1/2
f 14/1/3 8/1/3 9/1/3
f 12/1/4 6/1/4 7/1/4
f 15/1/5 9/1/5 10/1/5
f 13/1/6 7/1/6 8/1/6
f 2/1/1 7/1/1 6/1/1
f 5/1/1 10/1/1 9/1/1
f 3/1/1 8/1/1 7/1/1
f 1/1/1 6/1/1 10/1/1
f 4/1/1 9/1/1 8/1/1
f 11/1/2 15/1/2 10/1/2
f 14/1/3 13/1/3 8/1/3
f 12/1/4 11/1/4 6/1/4
f 15/1/5 14/1/5 9/1/5
f 13/1/6 12/1/6 7/1/6
