# Blender 4.1.1
# www.blender.org
o Truncated_Dodecahedron
v -0.246183 0.870388 -0.426401
v -0.246183 0.870388 0.426401
v 0.492366 0.870388 0.000000
v 0.984732 0.174078 0.000000
v 0.738549 -0.522233 0.426401
v 0.738549 -0.522233 -0.426401
v 0.000000 -0.522233 -0.852803
v -0.738549 -0.522233 -0.426401
v -0.492366 0.174078 -0.852803
v -0.738549 -0.522233 0.426401
v 0.000000 -0.522233 0.852803
v -0.492366 0.174078 0.852803
vn -0.0000 1.0000 -0.0000
vn 0.9428 -0.3333 -0.0000
vn -0.4714 -0.3333 -0.8165
vn -0.4714 -0.3333 0.8165
vn 0.4714 0.3333 -0.8165
vn -0.9428 0.3333 -0.0000
vn 0.4714 0.3333 0.8165
vn -0.0000 -1.0000 -0.0000
s 0
f 1//1 2//1 3//1
f 4//2 5//2 6//2
f 7//3 8//3 9//3
f 10//4 11//4 12//4
f 3//5 6//5 9//5
f 1//6 8//6 12//6
f 2//7 11//7 4//7
f 5//8 10//8 7//8
f 9//5 1//5 3//5
f 3//5 4//5 6//5
f 6//5 7//5 9//5
f 12//6 2//6 1//6
f 1//6 9//6 8//6
f 8//6 10//6 12//6
f 4//7 3//7 2//7
f 2//7 12//7 11//7
f 11//7 5//7 4//7
f 7//8 6//8 5//8
f 5//8 11//8 10//8
f 10//8 8//8 7//8
