# Blender 4.1.1
# www.blender.org
o Truncated_Cuboctahedron
v -0.825947 -0.215737 0.520835
v -0.825947 -0.520835 0.215737
v -0.825947 -0.520835 -0.215737
v -0.825947 -0.215737 -0.520835
v -0.825947 0.215737 -0.520835
v -0.825947 0.520835 -0.215737
v -0.825947 0.520835 0.215737
v -0.825947 0.215737 0.520835
v 0.825947 -0.520835 0.215737
v 0.825947 -0.215737 0.520835
v 0.825947 0.215737 0.520835
v 0.825947 0.520835 0.215737
v 0.825947 0.520835 -0.215737
v 0.825947 0.215737 -0.520835
v 0.825947 -0.215737 -0.520835
v 0.825947 -0.520835 -0.215737
v -0.215737 -0.520835 0.825947
v -0.520835 -0.215737 0.825947
v -0.520835 0.215737 0.825947
v -0.215737 0.520835 0.825947
v 0.215737 0.520835 0.825947
v 0.520835 0.215737 0.825947
v 0.520835 -0.215737 0.825947
v 0.215737 -0.520835 0.825947
v 0.215737 -0.520835 -0.825947
v 0.520835 -0.215737 -0.825947
v 0.520835 0.215737 -0.825947
v 0.215737 0.520835 -0.825947
v -0.215737 0.520835 -0.825947
v -0.520835 0.215737 -0.825947
v -0.520835 -0.215737 -0.825947
v -0.215737 -0.520835 -0.825947
v -0.520835 -0.825947 0.215737
v -0.215737 -0.825947 0.520835
v 0.215737 -0.825947 0.520835
v 0.520835 -0.825947 0.215737
v 0.520835 -0.825947 -0.215737
v 0.215737 -0.825947 -0.520835
v -0.215737 -0.825947 -0.520835
v -0.520835 -0.825947 -0.215737
v -0.215737 0.825947 0.520835
v -0.520835 0.825947 0.215737
v -0.520835 0.825947 -0.215737
v -0.215737 0.825947 -0.520835
v 0.215737 0.825947 -0.520835
v 0.520835 0.825947 -0.215737
v 0.520835 0.825947 0.215737
v 0.215737 0.825947 0.520835
vn -1.0000 -0.0000 -0.0000
vn 1.0000 -0.0000 -0.0000
vn -0.0000 -0.0000 1.0000
vn -0.0000 -0.0000 -1.0000
vn -0.0000 -1.0000 -0.0000
vn -0.0000 1.0000 -0.0000
vn -0.7071 -0.0000 0.7071
vn 0.7071 -0.0000 0.7071
vn 0.7071 -0.0000 -0.7071
vn -0.7071 -0.0000 -0.7071
vn -0.0000 -0.7071 0.7071
vn 0.7071 -0.7071 -0.0000
vn -0.0000 -0.7071 -0.7071
vn -0.7071 -0.7071 -0.0000
vn -0.7071 0.7071 -0.0000
vn -0.0000 0.7071 -0.7071
vn 0.7071 0.7071 -0.0000
vn -0.0000 0.7071 0.7071
vn -0.5774 -0.5774 0.5774
vn 0.5774 -0.5774 0.5774
vn 0.5774 -0.5774 -0.5774
vn -0.5774 -0.5774 -0.5774
vn -0.5774 0.5774 0.5774
vn 0.5774 0.5774 0.5774
vn 0.5774 0.5774 -0.5774
vn -0.5774 0.5774 -0.5774
vn -0.5774 -0.5774 0.5773
vn 0.5773 -0.5774 -0.5774
vn 0.5773 0.5774 0.5774
vn 0.5774 0.5773 0.5774
vn 0.5774 0.5774 0.5773
vn -0.5774 0.5773 -0.5774
s 0
f 7//1 5//1 3//1
f 15//2 13//2 11//2
f 23//3 21//3 19//3
f 31//4 29//4 27//4
f 39//5 37//5 35//5
f 47//6 45//6 43//6
f 1//7 19//7 8//7
f 11//8 23//8 10//8
f 15//9 27//9 14//9
f 5//10 31//10 4//10
f 17//11 35//11 24//11
f 9//12 37//12 16//12
f 25//13 39//13 32//13
f 3//14 33//14 2//14
f 7//15 43//15 6//15
f 29//16 45//16 28//16
f 13//17 47//17 12//17
f 21//18 41//18 20//18
f 18//19 2//19 34//19
f 10//20 24//20 36//20
f 26//21 16//21 38//21
f 4//22 32//22 40//22
f 8//23 20//23 42//23
f 22//24 12//24 48//24
f 14//25 28//25 46//25
f 30//26 6//26 44//26
f 3//1 2//1 1//1
f 1//1 8//1 7//1
f 7//1 6//1 5//1
f 5//1 4//1 3//1
f 3//1 1//1 7//1
f 11//2 10//2 9//2
f 9//2 16//2 15//2
f 15//2 14//2 13//2
f 13//2 12//2 11//2
f 11//2 9//2 15//2
f 19//3 18//3 17//3
f 17//3 24//3 23//3
f 23//3 22//3 21//3
f 21//3 20//3 19//3
f 19//3 17//3 23//3
f 27//4 26//4 25//4
f 25//4 32//4 31//4
f 31//4 30//4 29//4
f 29//4 28//4 27//4
f 27//4 25//4 31//4
f 35//5 34//5 33//5
f 33//5 40//5 39//5
f 39//5 38//5 37//5
f 37//5 36//5 35//5
f 35//5 33//5 39//5
f 43//6 42//6 41//6
f 41//6 48//6 47//6
f 47//6 46//6 45//6
f 45//6 44//6 43//6
f 43//6 41//6 47//6
f 1//7 18//7 19//7
f 11//8 22//8 23//8
f 15//9 26//9 27//9
f 5//10 30//10 31//10
f 17//11 34//11 35//11
f 9//12 36//12 37//12
f 25//13 38//13 39//13
f 3//14 40//14 33//14
f 7//15 42//15 43//15
f 29//16 44//16 45//16
f 13//17 46//17 47//17
f 21//18 48//18 41//18
f 34//19 17//19 18//19
f 18//19 1//19 2//19
f 2//27 33//27 34//27
f 36//20 9//20 10//20
f 10//20 23//20 24//20
f 24//20 35//20 36//20
f 38//28 25//28 26//28
f 26//21 15//21 16//21
f 16//21 37//21 38//21
f 40//22 3//22 4//22
f 4//22 31//22 32//22
f 32//22 39//22 40//22
f 42//23 7//23 8//23
f 8//23 19//23 20//23
f 20//23 41//23 42//23
f 48//29 21//29 22//29
f 22//30 11//30 12//30
f 12//31 47//31 48//31
f 46//25 13//25 14//25
f 14//25 27//25 28//25
f 28//25 45//25 46//25
f 44//26 29//26 30//26
f 30//32 5//32 6//32
f 6//26 43//26 44//26
