# Blender 4.1.1
# www.blender.org
o Truncated_Cube
v -0.229416 -0.688247 0.688247
v -0.688247 -0.229416 0.688247
v -0.688247 -0.688247 0.229416
v 0.688247 -0.688247 0.229416
v 0.688247 -0.229416 0.688247
v 0.229416 -0.688247 0.688247
v 0.229416 -0.688247 -0.688247
v 0.688247 -0.229416 -0.688247
v 0.688247 -0.688247 -0.229416
v -0.688247 -0.688247 -0.229416
v -0.688247 -0.229416 -0.688247
v -0.229416 -0.688247 -0.688247
v -0.229416 0.688247 0.688247
v -0.688247 0.688247 0.229416
v -0.688247 0.229416 0.688247
v 0.688247 0.229416 0.688247
v 0.688247 0.688247 0.229416
v 0.229416 0.688247 0.688247
v 0.688247 0.229416 -0.688247
v 0.229416 0.688247 -0.688247
v 0.688247 0.688247 -0.229416
v -0.688247 0.688247 -0.229416
v -0.229416 0.688247 -0.688247
v -0.688247 0.229416 -0.688247
vn -0.5774 -0.5774 0.5774
vn 0.5774 -0.5774 0.5774
vn 0.5774 -0.5774 -0.5774
vn -0.5774 -0.5774 -0.5774
vn -0.5774 0.5774 0.5774
vn 0.5774 0.5774 0.5774
vn 0.5774 0.5774 -0.5774
vn -0.5774 0.5774 -0.5774
vn -0.0000 -1.0000 -0.0000
vn -0.0000 -0.0000 1.0000
vn -1.0000 -0.0000 -0.0000
vn 1.0000 -0.0000 -0.0000
vn -0.0000 -0.0000 -1.0000
vn -0.0000 1.0000 -0.0000
s 0
f 1//1 2//1 3//1
f 4//2 5//2 6//2
f 7//3 8//3 9//3
f 10//4 11//4 12//4
f 13//5 14//5 15//5
f 16//6 17//6 18//6
f 19//7 20//7 21//7
f 22//8 23//8 24//8
f 12//9 9//9 6//9
f 5//10 18//10 15//10
f 14//11 24//11 10//11
f 16//12 4//12 8//12
f 7//13 11//13 23//13
f 22//14 13//14 17//14
f 6//9 1//9 3//9
f 3//9 10//9 12//9
f 12//9 7//9 9//9
f 9//9 4//9 6//9
f 6//9 3//9 12//9
f 15//10 2//10 1//10
f 1//10 6//10 5//10
f 5//10 16//10 18//10
f 18//10 13//10 15//10
f 15//10 1//10 5//10
f 10//11 3//11 2//11
f 2//11 15//11 14//11
f 14//11 22//11 24//11
f 24//11 11//11 10//11
f 10//11 2//11 14//11
f 8//12 19//12 21//12
f 21//12 17//12 16//12
f 16//12 5//12 4//12
f 4//12 9//12 8//12
f 8//12 21//12 16//12
f 23//13 20//13 19//13
f 19//13 8//13 7//13
f 7//13 12//13 11//13
f 11//13 24//13 23//13
f 23//13 19//13 7//13
f 17//14 21//14 20//14
f 20//14 23//14 22//14
f 22//14 14//14 13//14
f 13//14 18//14 17//14
f 17//14 20//14 22//14
